<svg width="475" height="107" viewBox="0 0 475 107" fill="none" xmlns="http://www.w3.org/2000/svg">
<g clip-path="url(#clip0_11815_14916)">
<path d="M155.949 88.8942C153.65 88.8942 152.503 87.7787 152.503 85.5504V45.9738C151.092 47.9439 149.683 49.7068 148.274 51.2609C147.072 52.557 146.042 53.1655 145.181 53.088C144.32 53.0104 143.47 52.2199 142.636 50.7166C142.061 49.6278 141.827 48.6689 141.932 47.8396C142.035 47.0104 142.506 46.1811 143.341 45.3519C149.554 38.77 154.721 30.7343 158.848 21.2488C159.734 19.0713 161.275 18.321 163.468 18.9937C165.765 19.7708 166.47 21.2234 165.583 23.3473C164.017 26.9238 161.929 30.9938 159.318 35.5547V85.5504C159.318 87.7787 158.194 88.8942 155.95 88.8942H155.949ZM167.539 86.5616C165.241 86.5616 164.093 85.4207 164.093 83.1402C164.093 80.8598 165.241 79.6413 167.539 79.6413H185.63V61.9917H171.924C169.626 61.9917 168.478 60.8521 168.478 58.5704C168.478 56.2886 169.626 55.149 171.924 55.149H185.63V39.7544H169.419C167.12 39.7544 165.973 38.5881 165.973 36.2555C165.973 33.9229 167.12 32.8342 169.419 32.8342H190.407C187.535 30.3464 183.802 27.6768 179.208 24.8252C176.91 23.4249 176.674 21.7423 178.504 19.7708C179.86 18.2675 181.401 18.0348 183.124 19.0713C187.197 21.4039 190.981 23.8408 194.479 26.3808C195.42 27.1578 195.888 28.1302 195.888 29.2965C195.888 30.4628 195.418 31.5903 194.479 32.679L194.323 32.8342H209.282C211.579 32.8342 212.728 33.9751 212.728 36.2555C212.728 38.536 211.579 39.7544 209.282 39.7544H192.914V55.149H207.01C209.307 55.149 210.456 56.2899 210.456 58.5704C210.456 60.8508 209.307 61.9917 207.01 61.9917H192.914V79.6413H210.378C212.675 79.6413 213.824 80.8076 213.824 83.1402C213.824 85.4728 212.675 86.5616 210.378 86.5616H167.541H167.539Z" fill="#0085DB"/>
<path d="M230.739 84.5405C229.693 82.4674 230.112 80.7581 231.992 79.4085C235.019 77.1281 237.421 75.1847 239.196 73.577V61.7589C239.196 60.515 238.57 59.8931 237.317 59.8931H233.48C231.234 59.8931 230.112 58.7789 230.112 56.5493C230.112 54.3197 231.234 53.2056 233.48 53.2056H242.329C243.477 53.2056 244.392 53.5426 245.071 54.2167C245.748 54.8908 246.089 55.7977 246.089 56.9372V72.8762C249.481 78.0082 255.721 80.73 264.806 81.0403C274.308 81.4041 284.933 81.3265 296.681 80.8076C298.404 80.7046 299.487 80.9239 299.932 81.4683C300.375 82.0126 300.336 83.1134 299.814 84.7733C299.448 85.862 299.018 86.6003 298.523 86.9895C298.025 87.3787 297.231 87.5981 296.134 87.6502C284.857 88.0127 274.414 88.0648 264.808 87.8054C259.796 87.5981 255.566 86.8196 252.12 85.4728C248.569 84.0202 245.594 81.8174 243.193 78.8642C241.784 80.2632 239.591 82.3377 236.615 85.0849C236.51 85.1879 236.432 85.2668 236.381 85.3176C233.979 87.4429 232.099 87.1834 230.741 84.5405H230.739ZM242.72 46.6344C241.937 46.6612 241.101 46.2332 240.214 45.3518C240.162 45.301 240.084 45.2234 239.98 45.1191C238.884 44.239 237.996 43.5635 237.317 43.0968C236.22 42.2167 234.993 41.3607 233.636 40.5314C231.494 39.2367 231.338 37.6812 233.166 35.8662C234.367 34.6745 235.724 34.4659 237.239 35.2443C240.528 37.0071 243.294 38.8475 245.54 40.7655C246.322 41.4918 246.687 42.218 246.636 42.9429C246.584 43.617 246.139 44.3687 245.304 45.198C244.365 46.1315 243.503 46.6104 242.72 46.6358V46.6344ZM242.486 29.9572C241.545 29.0236 240.632 28.2211 239.744 27.547C238.648 26.6147 237.473 25.7587 236.22 24.9817C234.027 23.5826 233.922 22.0017 235.908 20.2389C237.161 19.0993 238.544 18.9696 240.058 19.8497C242.825 21.4573 245.435 23.3486 247.89 25.526C248.673 26.3031 249.013 27.0307 248.908 27.7035C248.802 28.3254 248.332 29.0517 247.498 29.8809C245.67 31.5916 244 31.6183 242.487 29.9585L242.486 29.9572ZM287.987 77.0759C285.637 77.0759 284.176 76.2734 283.602 74.6658C282.819 72.3332 284.072 71.219 287.362 71.322H289.555C290.337 71.322 290.729 70.9074 290.729 70.0781V64.6345H279.139V73.4206C279.139 75.5458 278.068 76.6078 275.927 76.6078C273.786 76.6078 272.639 75.5458 272.639 73.4206V64.6345H261.44V73.4981C261.44 75.7277 260.316 76.8419 258.072 76.8419C255.828 76.8419 254.704 75.7277 254.704 73.4981V42.0856C254.704 40.5823 255.174 39.3638 256.113 38.4316C257.054 37.498 258.28 37.0312 259.795 37.0312H274.674C272.012 35.6843 268.93 34.3107 265.434 32.9104C263.032 31.926 262.875 30.5778 264.964 28.8671C266.008 27.987 267.105 27.753 268.254 28.1676C270.916 29.2055 273.683 30.3183 276.555 31.5113C279.634 29.9558 282.454 28.2197 285.013 26.3018H257.838C255.958 26.3018 255.018 25.3441 255.018 23.4248C255.018 21.5055 255.958 20.6254 257.838 20.6254H290.886C292.923 20.6254 294.162 21.1444 294.605 22.1809C295.048 23.2188 294.566 24.6687 293.157 26.5345C290.442 29.4382 286.97 32.0303 282.741 34.3107C284.724 35.243 286.472 36.1511 287.988 37.0312H293.001C294.357 37.0312 295.454 37.4472 296.289 38.2751C297.124 39.1057 297.542 40.193 297.542 41.5412V70.1544C297.542 71.865 297.359 73.1357 296.994 73.9649C296.575 74.8972 295.819 75.598 294.722 76.0648C293.417 76.6359 291.171 76.973 287.988 77.0759H287.987ZM261.437 48.0736H272.636V42.3972H263.317C262.064 42.3972 261.437 43.0192 261.437 44.2631V48.0723V48.0736ZM261.437 59.1922H272.636V53.3607H261.437V59.1922ZM279.137 48.0736H290.728V44.2644C290.728 43.0205 290.102 42.3986 288.849 42.3986H279.137V48.0749V48.0736ZM279.137 59.1922H290.728V53.3607H279.137V59.1922Z" fill="#0085DB"/>
<path d="M329.806 86.9508C328.969 85.7577 329.023 84.6436 329.962 83.607C330.692 82.7269 331.919 82.0007 333.644 81.4296C338.029 79.4594 341.292 76.7911 343.433 73.4206C345.208 70.6212 346.435 66.8896 347.114 62.2244H332.077C330.928 71.7621 328.422 79.5637 324.559 85.628C323.88 86.5615 323.097 87.0537 322.209 87.1059C321.322 87.1567 320.512 86.7421 319.782 85.862C319.729 85.8099 319.677 85.7577 319.626 85.7069C318.736 85.0849 318.242 84.3065 318.138 83.3743C318.033 82.4407 318.32 81.5085 318.999 80.5749C321.661 76.2722 323.489 71.0104 324.481 64.7911C325.158 60.5418 325.499 55.2266 325.499 48.8521V27.2367C325.499 25.4752 326.008 24.1926 327.027 23.3874C328.045 22.5849 329.415 22.3896 331.138 22.8043L332.313 23.1146C349.489 22.3896 363.142 21.1444 373.271 19.3816C374.001 19.2264 374.628 19.2786 375.15 19.5367C375.515 19.7441 376.011 20.1854 376.639 20.8582C377.787 22.1021 378.309 23.0624 378.206 23.7352C378.153 24.4614 377.344 24.9536 375.778 25.2131C364.605 27.0281 350.274 28.2719 332.784 28.946V32.7566H376.876C378.389 32.7566 379.616 33.2234 380.556 34.1556C381.495 35.0892 381.966 36.3077 381.966 37.8097V45.3518C381.966 46.8552 381.495 48.0723 380.556 49.0059C379.616 49.9395 378.389 50.4062 376.876 50.4062H359.099V56.4705H384.238C386.169 56.4705 387.136 57.4308 387.136 59.3474C387.136 61.2641 386.169 62.2244 384.238 62.2244H354.322C354.061 64.1424 353.747 65.8784 353.382 67.4339H374.136C377.686 67.4339 379.147 70.3109 378.521 76.0648C377.738 81.8188 376.642 85.4461 375.231 86.9508C373.873 88.1425 372.021 88.8166 369.672 88.9717C368.731 89.0747 366.721 89.1269 363.641 89.1269C361.082 89.0747 359.594 87.986 359.176 85.8607V85.7831L359.098 85.628C358.679 84.7987 358.679 84.1634 359.098 83.7234C359.516 83.282 360.324 83.1135 361.525 83.2178C363.04 83.2686 364.736 83.2954 366.616 83.2954C367.92 83.2954 368.835 83.0881 369.356 82.6734C370.192 81.8442 370.896 79.6413 371.471 76.0648C371.628 74.9253 371.589 74.1348 371.354 73.6934C371.12 73.2534 370.662 73.0327 369.984 73.0327H351.58C348.865 79.6681 343.487 84.5914 335.448 87.8068C332.784 88.739 330.905 88.4541 329.809 86.9521L329.806 86.9508ZM332.546 56.4705H351.968V50.4062H332.78C332.78 52.3242 332.702 54.3465 332.546 56.4705ZM332.782 44.7299H373.035C374.288 44.7299 374.915 44.108 374.915 42.8641V40.2987C374.915 39.0549 374.288 38.4329 373.035 38.4329H332.782V44.7312V44.7299Z" fill="#0085DB"/>
<path d="M410.704 54.0604C408.458 54.0604 407.336 52.9462 407.336 50.7166V44.2632C407.336 42.7598 407.806 41.5414 408.747 40.6078C409.686 39.6756 410.913 39.2088 412.427 39.2088H436.077V33.5324H436.468C436.103 33.3251 435.607 33.0656 434.979 32.7553C434.353 32.4437 434.326 32.0826 434.901 31.6666C436.154 30.6301 437.067 29.8276 437.643 29.2564H425.974C426.339 29.9305 426.835 30.8895 427.461 32.1334C428.296 34.0514 427.629 35.334 425.465 35.9827C423.297 36.6314 421.874 36.0215 421.197 34.1557C420.414 32.445 419.578 30.812 418.691 29.2578H416.264C414.541 31.7455 413.105 33.6113 411.957 34.8566C410.548 36.3599 409.007 36.5418 407.336 35.4009C406.187 34.5717 405.574 33.7678 405.496 32.9907C405.418 32.2123 405.9 31.3068 406.944 30.2689C409.45 27.5739 411.747 24.2315 413.836 20.239C414.724 18.2167 416.185 17.4918 418.221 18.0616C420.674 18.6835 421.379 20.1614 420.336 22.494C420.283 22.5984 420.205 22.7415 420.102 22.922C419.997 23.1039 419.918 23.2471 419.867 23.35H435.843C436.729 23.35 437.422 23.5961 437.917 24.0883C438.413 24.5819 438.661 25.268 438.661 26.1494V26.3822C438.661 27.5752 439.079 27.7304 439.914 26.8489C441.637 24.8801 443.124 22.6773 444.378 20.2404C445.319 18.2702 446.831 17.5453 448.921 18.0629C451.478 18.6848 452.157 20.1895 450.956 22.573C450.851 22.8324 450.722 23.0919 450.566 23.35H472.024C474.009 23.35 475 24.3358 475 26.3046C475 28.2734 474.007 29.2591 472.024 29.2591H459.963C460.225 29.6229 460.615 30.1673 461.138 30.8922C461.503 31.359 461.764 31.7228 461.921 31.9809C463.121 34.1062 462.52 35.5066 460.12 36.1793C458.032 36.8013 456.543 36.2569 455.655 34.5463C454.819 33.0429 453.618 31.2801 452.053 29.2591H446.57C445.577 30.5552 444.35 31.9809 442.89 33.5351H443.046V39.2115H467.793C469.307 39.2115 470.533 39.6782 471.473 40.6105C472.414 41.5441 472.884 42.7625 472.884 44.2659V50.5642C472.884 52.8968 471.709 54.0631 469.36 54.0631C467.01 54.0631 465.836 52.8968 465.836 50.5642V46.7536C465.836 45.5097 465.209 44.8878 463.956 44.8878H415.95C414.697 44.8878 414.07 45.5097 414.07 46.7536V50.7193C414.07 52.9489 412.947 54.0631 410.703 54.0631L410.704 54.0604ZM423.94 86.7944C422.424 86.7944 421.198 86.3276 420.258 85.394C419.319 84.4618 418.849 83.2433 418.849 81.7399V53.9815C418.849 52.4781 419.319 51.2597 420.258 50.3261C421.198 49.3938 422.424 48.9271 423.94 48.9271H456.127C457.64 48.9271 458.867 49.3938 459.807 50.3261C460.747 51.2597 461.216 52.4781 461.216 53.9815V60.1246C461.216 61.628 460.746 62.8451 459.807 63.7787C458.867 64.7122 457.64 65.1777 456.127 65.1777H425.663V69.6877H461.531C463.044 69.6877 464.271 70.1545 465.212 71.0868C466.151 72.0203 466.621 73.2388 466.621 74.7421V81.7399C466.621 83.2433 466.151 84.4618 465.212 85.394C464.271 86.3276 463.044 86.7944 461.531 86.7944H423.941H423.94ZM425.663 59.8143H452.132C453.385 59.8143 454.012 59.1924 454.012 57.9485V56.1603C454.012 54.9164 453.385 54.2944 452.132 54.2944H427.542C426.289 54.2944 425.663 54.9164 425.663 56.1603V59.8143ZM427.542 81.2745H457.458C458.711 81.2745 459.337 80.6526 459.337 79.4087V76.9985C459.337 75.7546 458.711 75.1327 457.458 75.1327H425.661V79.4087C425.661 80.6526 426.288 81.2745 427.54 81.2745H427.542Z" fill="#0085DB"/>
<path d="M74.6003 107C67.8512 107 62.2605 104.353 57.6089 101.521L67.2194 95.6029C67.9468 95.7648 68.6608 95.948 69.3559 96.1272C71.188 96.5994 72.9191 97.0461 74.7108 97.0461H74.832C78.8465 96.9993 82.2601 95.9654 84.9746 93.9712C91.7103 89.0251 94.2159 82.3416 92.6371 73.5422C91.3142 66.1726 87.3685 60.4575 79.842 55.0138L79.8218 54.9991L79.8016 54.9857C73.074 50.6001 60.5025 42.0668 59.0544 41.0584C58.2555 40.502 57.6062 40.2532 56.9528 40.2532C56.158 40.2532 55.5545 40.6156 54.8553 41.0343C54.7247 41.1132 54.5859 41.1961 54.4364 41.2831C52.5019 42.4025 50.5701 43.526 48.6397 44.6509C46.5071 45.8921 44.3746 47.1333 42.2381 48.3678C41.8083 48.6166 41.3624 48.852 40.8694 49.1061V37.4538C41.5052 37.0993 42.1478 36.7396 42.7971 36.3758C44.6387 35.3445 46.5422 34.2786 48.4497 33.2393C49.9935 32.398 51.5549 31.534 53.0663 30.6967C56.4746 28.8095 60.0001 26.8581 63.5255 25.0645C69.4933 22.0271 73.8769 21.2179 78.9543 20.2816C80.6193 19.974 82.2911 19.8188 83.9225 19.8188C87.6271 19.8188 91.3061 20.6227 94.8558 22.209C104.524 26.5291 110.414 33.5269 112.358 43.0071C114.325 52.597 112.94 58.9688 106.845 67.4833C106.808 67.3991 106.77 67.3162 106.732 67.2319C106.37 66.4347 106.011 65.6162 105.664 64.8244C104.807 62.869 103.921 60.8453 102.875 58.9233L102.852 58.8819L102.838 58.8578C102.081 57.63 101.931 57.3705 101.858 57.2448C101.785 57.119 101.772 57.095 101.509 56.6897C102.976 49.9099 103.533 42.856 98.3234 36.9656C94.2402 32.3485 89.1036 30.0079 83.0549 30.0079C81.9409 30.0079 80.7837 30.0895 79.6143 30.25C77.0871 30.5978 71.2581 32.168 69.1269 33.9268L68.1408 34.7413L69.1767 35.4944C69.9136 36.0294 70.6195 36.5483 71.3052 37.0525C72.7682 38.1265 74.149 39.1417 75.5595 40.1208C77.071 41.1694 78.6242 42.2073 80.1263 43.2104C82.8865 45.0535 85.7398 46.9607 88.4058 48.9857C96.7095 55.292 101.515 63.198 103.096 73.1557C104.691 83.2016 101.775 91.7108 94.1769 99.1687C88.9662 104.285 82.477 106.92 74.8899 107C74.7943 107 74.6973 107.001 74.6017 107.001L74.6003 107Z" fill="#0085DB"/>
<path d="M25.7032 64.9584C25.7032 63.8737 25.7019 62.8037 25.6992 61.743C25.6951 58.9517 25.6911 56.3141 25.7073 53.6351C25.7207 51.2142 25.7531 48.7519 25.784 46.3698C25.846 41.6498 25.9093 36.7692 25.8339 31.9636C25.6938 23.1294 28.5793 15.4414 34.4084 9.11373C38.7462 4.40573 44.3206 1.53946 50.9768 0.596525C53.8907 0.183238 56.1108 0 58.1786 0H58.2109C64.9803 0.0066875 71.262 2.46368 76.8822 7.30409C79.8123 9.82661 81.9717 12.424 83.4468 15.206C79.8001 15.4027 75.9702 16.2185 72.5714 17.0518C69.4487 14.1936 64.1828 10.9809 56.2913 10.9809C56.1889 10.9809 56.0865 10.9809 55.9828 10.9822C48.9507 11.0585 43.0153 14.3447 38.8149 20.4852C37.0973 22.9983 36.188 25.9462 36.1866 29.0104C36.1812 39.067 36.1812 49.1237 36.1826 59.1804V70.4327L25.7046 64.9584H25.7032Z" fill="#0085DB"/>
<path d="M35.3986 106.699C29.257 106.699 23.6475 104.421 18.7251 99.9314C13.936 95.5618 10.8955 90.3014 9.68849 84.2974C9.61305 83.9242 8.82228 80.2648 8.87347 76.7967C10.7352 77.8293 12.6535 78.8912 14.4843 79.9037C16.3689 80.947 18.162 81.9394 19.7058 82.7954C20.77 86.3358 22.6183 88.8182 24.3009 90.787C27.4128 94.429 31.0406 96.2761 35.086 96.2761C37.6429 96.2761 40.317 95.5137 43.0355 94.0103C46.9826 91.8262 50.8569 89.3893 54.6047 87.0326C56.0838 86.1017 57.6142 85.1387 59.1257 84.2078C63.0485 81.7883 66.8852 79.4075 70.9468 76.8863C72.7183 75.7869 74.5046 74.6781 76.3084 73.56L76.7893 73.2617V58.3325C79.295 60.2813 84.3198 64.8461 86.1627 67.5158C86.2152 73.2804 86.2058 76.8034 83.7324 79.6656C80.5384 82.7205 76.9308 84.9822 73.113 87.375C72.7223 87.6198 72.3316 87.8645 71.941 88.1106L71.615 88.3153C63.8231 93.2225 55.7673 98.297 47.7936 103.202C44.6642 105.126 41.1455 106.303 37.62 106.602C36.875 106.664 36.1274 106.697 35.3999 106.697L35.3986 106.699Z" fill="#0085DB"/>
<path d="M41.7557 89.9095C38.8499 88.3232 35.9091 86.757 33.0613 85.2403C26.2192 81.5969 19.144 77.8292 12.4892 73.7364C4.5559 68.8572 0.36092 61.3846 0.0214418 51.5246C-0.258762 43.3993 2.27251 36.2396 7.54519 30.2463C11.1973 26.0947 16.7219 22.5249 22.5887 20.4785C21.2671 25.6252 21.1674 31.0822 21.1742 32.8838C20.7768 33.1152 20.2366 33.4309 19.885 33.6368C14.3711 36.8736 11.2417 41.7153 10.5843 48.027C9.72351 56.2941 12.7546 62.4332 19.5926 66.2772C22.9295 68.1537 26.3903 69.9232 29.7352 71.6352C31.4218 72.4979 33.1664 73.39 34.8705 74.2835C39.8872 76.913 48.3567 81.5394 52.1758 83.6674L41.757 89.9095H41.7557Z" fill="#0085DB"/>
<path d="M68.6498 73.0237V59.1298C68.6498 58.8516 68.5205 58.5908 68.2969 58.4236C65.3453 56.2073 61.572 53.4039 57.3056 50.2247C56.9122 49.9318 56.3693 49.9331 55.98 50.2314C53.3922 52.2069 48.234 56.1084 45.4562 58.0411C45.2177 58.2069 45.0776 58.4771 45.0776 58.766V73.0224C45.0776 73.5119 45.4777 73.9105 45.9721 73.9105H53.3639V68.2288C53.3639 66.3148 54.8713 64.6737 56.7991 64.6376C58.7632 64.6015 60.3663 66.1717 60.3663 68.1124V73.9092H67.758C68.2511 73.9092 68.6525 73.5119 68.6525 73.0211L68.6498 73.0237Z" fill="#0085DB"/>
</g>
<defs>
<clipPath id="clip0_11815_14916">
<rect width="475" height="107" fill="white"/>
</clipPath>
</defs>
</svg>
